<?xml version="1.0" encoding="utf-8"?>
<!-- Generator: Adobe Illustrator 23.0.6, SVG Export Plug-In . SVG Version: 6.00 Build 0)  -->
<svg version="1.1" id="Layer_1" xmlns="http://www.w3.org/2000/svg" xmlns:xlink="http://www.w3.org/1999/xlink" x="0px" y="0px"
	 viewBox="0 0 180 180" style="enable-background:new 0 0 180 180;" width="180" height="180" xml:space="preserve">
<style type="text/css">
	.st0{fill-rule:evenodd;clip-rule:evenodd;fill:#9C92AC;}
	.st1{fill:#9C92AC;}
	.st2{fill:none;}
</style>
<title>skulls</title>
<desc>Created with Sketch.</desc>
<g id="Page-1">
	<g id="skulls">
		<path id="Combined-Shape" class="st0" d="M82.4,180H81l0,0L0,99v-1.4v-1.4L6.2,90L0,83.8v-1.4V81L81,0h1.4h1.4L90,6.2L96.2,0h1.4
			H99l81,81l0,0v1.4v1.4l-6.2,6.2l6.2,6.2v1.4V99l-81,81h-1.4h-1.4l-6.2-6.2l-6.2,6.2H82.4z M82.4,178.6l-81-81L9,90l-7.6-7.6l81-81
			L90,9l7.6-7.6l81,81L171,90l7.6,7.6l-81,81L90,171L82.4,178.6z"/>
	</g>
</g>
<g>
	<path class="st1" d="M112.8,95.1c0,0.2,0,0.4,0,0.6c0,3.4,0.1,6.9,0,10.3c-0.1,5.3-2.7,9.1-7.4,11.3c-1.1,0.5-2.4,0.7-3.6,1
		c-0.4,0.1-0.6,0.2-0.7,0.6c-2.4,5.4-7.6,8.4-13.4,7.5c-4.5-0.7-7.8-3.3-9.6-7.5c-0.2-0.4-0.4-0.6-0.8-0.6
		c-6.1-0.6-10.8-5.7-11-11.9c-0.1-3.5,0-7.1,0-10.6c0-0.2,0-0.4,0-0.8c-0.3,0.2-0.5,0.3-0.7,0.4c-1.5,1.1-3.1,2-4.9,2.4
		c-5.4,1.2-11.2-2.1-12.9-7.4c-0.3-0.9-0.4-2-0.6-2.9c-0.1-0.8,0.2-1.4,0.7-2c3.2-3.8,6.4-7.7,9.7-11.5c3.5-4.2,7.1-8.5,10.6-12.7
		c1.7-2,3.8-3.1,6.5-3.1c10,0,19.9,0,29.9,0c2.7,0,4.9,1.1,6.6,3.1c6.7,8.1,13.5,16.2,20.3,24.2c0.8,0.9,0.7,1.9,0.5,2.8
		c-0.9,6.3-6.7,10.5-13,9.4c-1.7-0.3-3.2-1-4.6-2c-0.4-0.3-0.8-0.6-1.2-0.8C112.9,95.1,112.8,95.1,112.8,95.1z M109.6,86.5
		c0-6.5,0-13.1,0-19.6c0-3.3-2.2-5.5-5.5-5.5c-9.8,0-19.6,0-29.4,0c-3.2,0-5.4,2.2-5.4,5.4c0,13,0,26,0,39.1c0,5.2,4.1,9.3,9.2,9.3
		c4.5,0,8.3-3.2,9.2-7.6c0.1-0.3-0.1-0.5-0.3-0.7c-0.6-0.6-1.3-1.1-1.7-1.8c-1.1-1.7-2-3.4-3-5.1c-0.7-1.2-0.9-2.5-0.5-3.8
		c0.5-1.6,2.1-2.7,4-2.7c2.2-0.1,4.3-0.1,6.5,0c1.8,0.1,3.3,0.9,4,2.7c0.5,1.3,0.2,2.6-0.5,3.8c-0.7,1.2-1.4,2.4-2,3.6
		c-0.8,1.3-1.4,2.7-2.8,3.5c-0.1,0.1-0.2,0.3-0.1,0.5c0.8,4.3,4.6,7.6,9,7.6c5.2,0.1,9.4-4.1,9.4-9.4
		C109.6,99.4,109.6,93,109.6,86.5z M66,68.7c-0.2,0.3-0.4,0.4-0.6,0.6c-4.7,5.7-9.4,11.3-14.2,17c-1.2,1.4-1.2,1.4-0.6,3.2
		c0,0.1,0,0.1,0.1,0.2c1.4,3.7,5.1,5.7,9,5c3.6-0.6,6.4-4,6.4-7.8c0-5.9,0-11.8,0-17.6C66.1,69.1,66.1,69,66,68.7z M112.8,68.7
		c0,0.3,0,0.5,0,0.6c0,5.9,0,11.8,0,17.7c0,0.7,0.1,1.3,0.3,2c0.9,3.6,4.3,6.1,8.1,5.9c3.6-0.2,6.8-3.1,7.3-6.7c0.1-0.4,0-0.7-0.3-1
		c-5-6-10-11.9-15-17.9C113.2,69.1,113,68.9,112.8,68.7z M97.8,118.2c-3.6-0.9-6.4-2.9-8.4-6.1c-2,3.2-4.8,5.2-8.4,6.1
		c1.9,3.2,4.5,5,8.1,5.1C93,123.4,95.8,121.6,97.8,118.2z M89.4,96.7c-0.6,0-1.2,0-1.8,0c-0.7,0-1.4,0.1-2.1,0.2
		c-0.3,0-0.5,0.2-0.3,0.5c0.2,0.4,0.3,0.9,0.5,1.4c0.8,1.5,1.7,3,2.6,4.4c0.2,0.4,0.6,0.8,0.9,1.1c0.2,0.2,0.3,0.2,0.5,0
		c0.3-0.3,0.6-0.6,0.8-1c1-1.6,1.9-3.2,2.8-4.9c0.8-1.3,0.5-1.8-1.1-1.9C91.3,96.7,90.4,96.7,89.4,96.7z"/>
	<path class="st1" d="M81.3,81.5c0,1.5-1.2,2.7-2.7,2.7s-2.7-1.3-2.7-2.7c0-1.5,1.2-2.7,2.7-2.7C80.1,78.8,81.3,80,81.3,81.5z"/>
	<path class="st1" d="M97.6,81.5c0-1.5,1.2-2.7,2.7-2.7s2.7,1.2,2.7,2.7s-1.2,2.7-2.7,2.7C98.8,84.2,97.6,83,97.6,81.5z"/>
</g>
<g>
	<path class="st2" d="M38.8,175.8c0.1-0.4,0-0.7-0.3-1c-5-6-10-11.9-15-17.9c0-0.2-0.2-0.4-0.4-0.6c0,0.3,0,0.5,0,0.6
		c0,5.9,0,11.8,0,17.7c0,0.7,0.1,1.3,0.3,2c0.3,1.3,1,2.4,1.8,3.4h11.5C37.8,178.9,38.5,177.4,38.8,175.8z"/>
	<path class="st2" d="M0,133.8v12c4.9,0,9.9,0,14.9,0c2.7,0,4.9,1.1,6.6,3.1c6.7,8.1,13.5,16.2,20.3,24.2c0.8,0.9,0.7,1.9,0.5,2.8
		c-0.2,1.5-0.7,2.9-1.4,4.1h9.7v-46.2L0,133.8L0,133.8z"/>
	<path class="st2" d="M19.9,154.5c0-3.3-2.2-5.5-5.5-5.5c-4.8,0-9.6,0-14.4,0v31h19.9c0-2,0-3.9,0-5.9
		C19.9,167.6,19.9,161,19.9,154.5z M10.6,171.8c-1.5,0-2.7-1.2-2.7-2.7s1.2-2.7,2.7-2.7s2.7,1.2,2.7,2.7S12.1,171.8,10.6,171.8z"/>
	<path class="st1" d="M41.8,173.1c-6.8-8-13.6-16.1-20.3-24.2c-1.7-2-3.9-3.1-6.6-3.1c-5,0-9.9,0-14.9,0v3.2c4.8,0,9.6,0,14.4,0
		c3.3,0,5.5,2.2,5.5,5.5c0,6.5,0,13.1,0,19.6c0,2,0,3.9,0,5.9h5.3c-0.9-0.9-1.5-2.1-1.8-3.4c-0.2-0.7-0.3-1.3-0.3-2
		c0-5.9,0-11.8,0-17.7c0-0.1,0-0.3,0-0.6c0.2,0.2,0.4,0.4,0.4,0.6c5,6,10,11.9,15,17.9c0.3,0.3,0.4,0.6,0.3,1c-0.2,1.6-1,3-2,4.2
		h4.1c0.7-1.2,1.2-2.6,1.4-4.1C42.5,175,42.6,174,41.8,173.1z"/>
	<path class="st1" d="M10.6,166.4c-1.5,0-2.7,1.2-2.7,2.7s1.2,2.7,2.7,2.7s2.7-1.2,2.7-2.7S12.1,166.4,10.6,166.4z"/>
</g>
<g>
	<path class="st2" d="M159.6,154.4c0,8.5,0,17,0,25.6H180v-31c-5,0-10,0-15,0C161.8,149,159.6,151.2,159.6,154.4z M168.9,166.4
		c1.5,0,2.7,1.2,2.7,2.7s-1.2,2.7-2.7,2.7s-2.7-1.3-2.7-2.7C166.2,167.6,167.4,166.4,168.9,166.4z"/>
	<path class="st2" d="M156.4,156.9c0-0.2,0-0.3-0.1-0.6c-0.2,0.3-0.4,0.4-0.6,0.6c-4.7,5.7-9.4,11.3-14.2,17
		c-1.2,1.4-1.2,1.4-0.6,3.2c0,0.1,0,0.1,0.1,0.2c0.4,1,1,1.9,1.7,2.7h11.5c1.3-1.4,2.2-3.4,2.2-5.5
		C156.4,168.6,156.4,162.7,156.4,156.9z"/>
	<path class="st2" d="M138.1,178c-0.3-0.9-0.4-2-0.6-2.9c-0.1-0.8,0.2-1.4,0.7-2c3.2-3.8,6.4-7.7,9.7-11.5
		c3.5-4.2,7.1-8.5,10.6-12.7c1.7-2,3.8-3.1,6.5-3.1c5,0,10,0,15,0v-15.7h-67.6V180H139C138.6,179.4,138.3,178.7,138.1,178z"/>
	<path class="st1" d="M158.5,148.9c-3.5,4.2-7.1,8.5-10.6,12.7c-3.3,3.8-6.5,7.7-9.7,11.5c-0.5,0.6-0.8,1.2-0.7,2
		c0.2,0.9,0.3,2,0.6,2.9c0.2,0.7,0.5,1.4,0.9,2h3.7c-0.7-0.7-1.3-1.6-1.7-2.7c-0.1-0.1-0.1-0.1-0.1-0.2c-0.6-1.8-0.6-1.8,0.6-3.2
		c4.8-5.7,9.5-11.3,14.2-17c0.2-0.2,0.4-0.3,0.6-0.6c0.1,0.3,0.1,0.4,0.1,0.6c0,5.8,0,11.7,0,17.6c0,2.1-0.8,4-2.2,5.5h5.4
		c0-8.5,0-17.1,0-25.6c0-3.2,2.2-5.4,5.4-5.4c5,0,10,0,15,0v-3.2c-5,0-10,0-15,0C162.3,145.8,160.2,146.9,158.5,148.9z"/>
	<path class="st1" d="M168.9,171.8c1.5,0,2.7-1.2,2.7-2.7s-1.2-2.7-2.7-2.7s-2.7,1.2-2.7,2.7C166.2,170.5,167.4,171.8,168.9,171.8z"
		/>
</g>
<g>
	<path class="st2" d="M178.4,33.9c-4.5-0.7-7.8-3.3-9.6-7.5c-0.2-0.4-0.4-0.6-0.8-0.6c-6.1-0.6-10.8-5.7-11-11.9
		c-0.1-3.5,0-7.1,0-10.6c0-0.2,0-0.4,0-0.8c-0.3,0.2-0.5,0.3-0.7,0.4c-1.5,1.1-3.1,2-4.9,2.4c-4.7,1-9.7-1.3-12-5.4h-9.1v51.6H180
		V34.1C179.5,34,178.9,34,178.4,33.9z"/>
	<path class="st2" d="M171.7,25.7c1.9,3.2,4.5,5,8.1,5.1c0.1,0,0.2,0,0.2,0V19.7C178,22.8,175.2,24.8,171.7,25.7z"/>
	<path class="st2" d="M169.2,22.7c4.5,0,8.3-3.2,9.2-7.6c0.1-0.3-0.1-0.5-0.3-0.7c-0.6-0.6-1.3-1.1-1.7-1.8c-1.1-1.7-2-3.4-3-5.1
		c-0.7-1.2-0.9-2.5-0.5-3.8c0.5-1.6,2.1-2.7,4-2.7c1.1,0,2.1-0.1,3.1-0.1v-1h-20c0,4.5,0,9,0,13.5C160,18.6,164.1,22.7,169.2,22.7z"
		/>
	<path class="st2" d="M176.2,4.4c-0.3,0-0.5,0.2-0.3,0.5c0.2,0.4,0.3,0.9,0.5,1.4c0.8,1.5,1.7,3,2.6,4.4c0.2,0.4,0.6,0.8,0.9,1.1
		c0,0.1,0.1,0.1,0.1,0.1V4.2c-0.6,0-1.2,0-1.7,0C177.6,4.2,176.9,4.3,176.2,4.4z"/>
	<path class="st2" d="M150.4,2.2c1.6-0.3,3.1-1.1,4.2-2.3H143C144.8,1.8,147.5,2.7,150.4,2.2z"/>
	<path class="st1" d="M151.5,5.3c1.8-0.4,3.4-1.3,4.9-2.4c0.2-0.1,0.4-0.2,0.7-0.4c0,0.4,0,0.6,0,0.8c0,3.5-0.1,7.1,0,10.6
		c0.2,6.2,4.9,11.3,11,11.9c0.4,0,0.6,0.2,0.8,0.6c1.8,4.2,5.1,6.8,9.6,7.5c0.6,0.1,1.1,0.1,1.6,0.1v-3.3c-0.1,0-0.2,0-0.2,0
		c-3.6-0.1-6.2-1.9-8.1-5.1c3.6-0.9,6.4-2.9,8.3-6v-7.7l-0.1-0.1c-0.3-0.3-0.7-0.7-0.9-1.1c-0.9-1.4-1.8-2.9-2.6-4.4
		c-0.2-0.5-0.3-1-0.5-1.4c-0.2-0.3,0-0.5,0.3-0.5c0.7-0.1,1.4-0.2,2.1-0.2c0.6,0,1.2,0,1.7,0V0.9c-1,0-2.1,0-3.1,0.1
		c-1.9,0-3.5,1.1-4,2.7c-0.4,1.3-0.2,2.6,0.5,3.8c1,1.7,1.9,3.4,3,5.1c0.4,0.7,1.1,1.2,1.7,1.8c0.2,0.2,0.4,0.4,0.3,0.7
		c-0.9,4.4-4.7,7.6-9.2,7.6c-5.1,0-9.2-4.1-9.2-9.3c0-4.5,0-9,0-13.5h-5.4c-1.1,1.2-2.6,2-4.2,2.3c-2.8,0.5-5.5-0.4-7.3-2.3h-3.7
		C141.8,4,146.8,6.4,151.5,5.3z"/>
</g>
<g>
	<path class="st2" d="M7.5,3.7C8,5,7.7,6.3,7,7.5s-1.4,2.4-2,3.6c-0.8,1.3-1.4,2.7-2.8,3.5c-0.1,0.1-0.2,0.3-0.1,0.5
		c0.8,4.3,4.6,7.6,9,7.6c5.2,0.1,9.4-4.1,9.4-9.4c-0.1-4.4-0.1-8.9-0.1-13.4H0.3v1c1.1,0,2.1,0,3.2,0.1C5.3,1.1,6.8,1.9,7.5,3.7z"/>
	<path class="st2" d="M8.6,25.7c-3.5-0.9-6.3-2.8-8.3-5.9v11C4,30.8,6.7,29,8.6,25.7z"/>
	<path class="st2" d="M32,2.4c2-0.1,3.9-1.1,5.3-2.5H25.7C27.3,1.6,29.6,2.5,32,2.4z"/>
	<path class="st2" d="M1.3,10.8c1-1.6,1.9-3.2,2.8-4.9C4.9,4.6,4.6,4.1,3,4C2.1,4.2,1.3,4.2,0.3,4.2v7.7c0.1,0,0.1-0.1,0.2-0.1
		C0.8,11.5,1.1,11.2,1.3,10.8z"/>
	<path class="st2" d="M41.4-0.1c-2.3,3.9-6.8,6.2-11.6,5.3c-1.7-0.3-3.2-1-4.6-2c-0.4-0.3-0.8-0.6-1.2-0.8c-0.3,0.2-0.4,0.2-0.4,0.2
		c0,0.2,0,0.4,0,0.6c0,3.4,0.1,6.9,0,10.3c-0.1,5.3-2.7,9.1-7.4,11.3c-1.1,0.5-2.4,0.7-3.6,1c-0.4,0.1-0.6,0.2-0.7,0.6
		c-2.1,4.9-6.5,7.8-11.6,7.7v2.5h42.6V-0.1H41.4z"/>
	<path class="st1" d="M11.5,26.4c0.1-0.4,0.3-0.5,0.7-0.6c1.2-0.3,2.5-0.5,3.6-1c4.7-2.2,7.3-6,7.4-11.3c0.1-3.4,0-6.9,0-10.3
		c0-0.2,0-0.4,0-0.6c0,0,0.1,0,0.4-0.2c0.4,0.2,0.8,0.5,1.2,0.8c1.4,1,2.9,1.7,4.6,2C34.2,6,38.7,3.8,41-0.1h-4.1
		c-1.4,1.5-3.2,2.4-5.3,2.5c-2.4,0.1-4.7-0.8-6.3-2.5H20c0,4.5,0,9,0.1,13.4c0,5.3-4.2,9.5-9.4,9.4c-4.4,0-8.2-3.3-9-7.6
		c-0.1-0.2,0-0.4,0.1-0.5c1.4-0.8,2-2.2,2.8-3.5c0.6-1.2,1.3-2.4,2-3.6s1-2.5,0.5-3.8C6.4,1.9,4.9,1.1,3.1,1C2,1,1,0.9-0.1,0.9v3.3
		c1,0,1.8,0,2.7-0.2c1.6,0.1,1.9,0.6,1.1,1.9c-0.9,1.7-1.8,3.3-2.8,4.9c-0.2,0.4-0.5,0.7-0.8,1C0,11.9,0,11.9-0.1,12v7.8
		c2,3.1,4.8,5.1,8.3,6c-1.9,3.3-4.6,4.9-8.3,4.9V34C5,34,9.4,31.3,11.5,26.4z"/>
</g>
</svg>
