<?xml version="1.0" encoding="utf-8"?>
<!-- Generator: Adobe Illustrator 23.0.6, SVG Export Plug-In . SVG Version: 6.00 Build 0)  -->
<svg version="1.1" id="Layer_1" xmlns="http://www.w3.org/2000/svg" xmlns:xlink="http://www.w3.org/1999/xlink" x="0px" y="0px"
	 viewBox="0 0 180 180" style="enable-background:new 0 0 180 180;" width="180" height="180" xml:space="preserve">
<style type="text/css">
	.st0{fill-rule:evenodd;clip-rule:evenodd;fill:#9C92AC;}
	.st1{fill:#989898;}
	.st2{fill:none;}
</style>
<title>skulls</title>
<desc>Created with Sketch.</desc>
<g id="Page-1">
	<g id="skulls">
		<path id="Combined-Shape" class="st0" d="M82.4,180H81l0,0L0,99v-1.4v-1.4L6.2,90L0,83.8v-1.4V81L81,0h1.4h1.4L90,6.2L96.2,0h1.4
			H99l81,81l0,0v1.4v1.4l-6.2,6.2l6.2,6.2v1.4V99l-81,81h-1.4h-1.4l-6.2-6.2l-6.2,6.2H82.4z M82.4,178.6l-81-81L9,90l-7.6-7.6l81-81
			L90,9l7.6-7.6l81,81L171,90l7.6,7.6l-81,81L90,171L82.4,178.6z"/>
	</g>
</g>
<g>
	<path class="st1" d="M112.8,95.1c0,0.2,0,0.4,0,0.6c0,3.4,0.1,6.9,0,10.3c-0.1,5.3-2.7,9.1-7.4,11.3c-1.1,0.5-2.4,0.7-3.6,1
		c-0.4,0.1-0.6,0.2-0.7,0.6c-2.4,5.4-7.6,8.4-13.4,7.5c-4.5-0.7-7.8-3.3-9.6-7.5c-0.2-0.4-0.4-0.6-0.8-0.6
		c-6.1-0.6-10.8-5.7-11-11.9c-0.1-3.5,0-7.1,0-10.6c0-0.2,0-0.4,0-0.8c-0.3,0.2-0.5,0.3-0.7,0.4c-1.5,1.1-3.1,2-4.9,2.4
		c-5.4,1.2-11.2-2.1-12.9-7.4c-0.3-0.9-0.4-2-0.6-2.9c-0.1-0.8,0.2-1.4,0.7-2c3.2-3.8,6.4-7.7,9.7-11.5c3.5-4.2,7.1-8.5,10.6-12.7
		c1.7-2,3.8-3.1,6.5-3.1c10,0,19.9,0,29.9,0c2.7,0,4.9,1.1,6.6,3.1c6.7,8.1,13.5,16.2,20.3,24.2c0.8,0.9,0.7,1.9,0.5,2.8
		c-0.9,6.3-6.7,10.5-13,9.4c-1.7-0.3-3.2-1-4.6-2c-0.4-0.3-0.8-0.6-1.2-0.8C112.9,95.1,112.8,95.1,112.8,95.1z M109.6,86.5
		c0-6.5,0-13.1,0-19.6c0-3.3-2.2-5.5-5.5-5.5c-9.8,0-19.6,0-29.4,0c-3.2,0-5.4,2.2-5.4,5.4c0,13,0,26,0,39.1c0,5.2,4.1,9.3,9.2,9.3
		c4.5,0,8.3-3.2,9.2-7.6c0.1-0.3-0.1-0.5-0.3-0.7c-0.6-0.6-1.3-1.1-1.7-1.8c-1.1-1.7-2-3.4-3-5.1c-0.7-1.2-0.9-2.5-0.5-3.8
		c0.5-1.6,2.1-2.7,4-2.7c2.2-0.1,4.3-0.1,6.5,0c1.8,0.1,3.3,0.9,4,2.7c0.5,1.3,0.2,2.6-0.5,3.8c-0.7,1.2-1.4,2.4-2,3.6
		c-0.8,1.3-1.4,2.7-2.8,3.5c-0.1,0.1-0.2,0.3-0.1,0.5c0.8,4.3,4.6,7.6,9,7.6c5.2,0.1,9.4-4.1,9.4-9.4
		C109.6,99.4,109.6,93,109.6,86.5z M66,68.7c-0.2,0.3-0.4,0.4-0.6,0.6c-4.7,5.7-9.4,11.3-14.2,17c-1.2,1.4-1.2,1.4-0.6,3.2
		c0,0.1,0,0.1,0.1,0.2c1.4,3.7,5.1,5.7,9,5c3.6-0.6,6.4-4,6.4-7.8c0-5.9,0-11.8,0-17.6C66.1,69.1,66.1,69,66,68.7z M112.8,68.7
		c0,0.3,0,0.5,0,0.6c0,5.9,0,11.8,0,17.7c0,0.7,0.1,1.3,0.3,2c0.9,3.6,4.3,6.1,8.1,5.9c3.6-0.2,6.8-3.1,7.3-6.7c0.1-0.4,0-0.7-0.3-1
		c-5-6-10-11.9-15-17.9C113.2,69.1,113,68.9,112.8,68.7z M97.8,118.2c-3.6-0.9-6.4-2.9-8.4-6.1c-2,3.2-4.8,5.2-8.4,6.1
		c1.9,3.2,4.5,5,8.1,5.1C93,123.4,95.8,121.6,97.8,118.2z M89.4,96.7c-0.6,0-1.2,0-1.8,0c-0.7,0-1.4,0.1-2.1,0.2
		c-0.3,0-0.5,0.2-0.3,0.5c0.2,0.4,0.3,0.9,0.5,1.4c0.8,1.5,1.7,3,2.6,4.4c0.2,0.4,0.6,0.8,0.9,1.1c0.2,0.2,0.3,0.2,0.5,0
		c0.3-0.3,0.6-0.6,0.8-1c1-1.6,1.9-3.2,2.8-4.9c0.8-1.3,0.5-1.8-1.1-1.9C91.3,96.7,90.4,96.7,89.4,96.7z"/>
	<path class="st1" d="M81.3,81.5c0,1.5-1.2,2.7-2.7,2.7c-1.5,0-2.7-1.3-2.7-2.7c0-1.5,1.2-2.7,2.7-2.7C80.1,78.8,81.3,80,81.3,81.5z
		"/>
	<path class="st1" d="M97.6,81.5c0-1.5,1.2-2.7,2.7-2.7c1.5,0,2.7,1.2,2.7,2.7c0,1.5-1.2,2.7-2.7,2.7C98.8,84.2,97.6,83,97.6,81.5z"
		/>
</g>
<g>
	<path class="st2" d="M159.9,154.4c0,8.5,0,17,0,25.6H180v-31c-4.9,0-9.8,0-14.7,0C162.1,149,159.9,151.3,159.9,154.4z M169.2,166.4
		c1.5,0,2.7,1.2,2.7,2.7c0,1.5-1.2,2.7-2.7,2.7c-1.5,0-2.7-1.3-2.7-2.7C166.4,167.6,167.6,166.4,169.2,166.4z"/>
	<path class="st2" d="M156.7,156.9c0-0.1,0-0.3,0-0.6c-0.2,0.3-0.4,0.4-0.6,0.6c-4.7,5.7-9.4,11.3-14.2,17c-1.2,1.4-1.2,1.4-0.6,3.2
		c0,0.1,0,0.1,0.1,0.2c0.4,1,1,1.9,1.7,2.7h11.5c1.3-1.4,2.2-3.4,2.2-5.4C156.7,168.7,156.7,162.8,156.7,156.9z"/>
	<path class="st2" d="M138.2,178.1c-0.3-0.9-0.4-2-0.6-2.9c-0.1-0.8,0.2-1.4,0.7-2c3.2-3.8,6.4-7.7,9.7-11.5
		c3.5-4.2,7.1-8.5,10.6-12.7c1.7-2,3.8-3.1,6.5-3.1c5,0,10,0,15,0v0h-42.9V180h1.9C138.7,179.4,138.4,178.7,138.2,178.1z"/>
	<path class="st1" d="M165,145.8c-2.6,0-4.8,1.1-6.5,3.1c-3.5,4.2-7.1,8.5-10.6,12.7c-3.2,3.8-6.4,7.7-9.7,11.5
		c-0.5,0.6-0.8,1.2-0.7,2c0.2,1,0.3,2,0.6,2.9c0.2,0.7,0.5,1.3,0.8,1.9h4c-0.7-0.8-1.3-1.7-1.7-2.7c0-0.1,0-0.1-0.1-0.2
		c-0.6-1.8-0.6-1.8,0.6-3.2c4.7-5.7,9.5-11.3,14.2-17c0.1-0.2,0.3-0.3,0.6-0.6c0,0.3,0,0.5,0,0.6c0,5.9,0,11.8,0,17.6
		c0,2.1-0.8,4-2.2,5.4h5.4c0-8.5,0-17,0-25.6c0-3.2,2.2-5.4,5.4-5.4c4.9,0,9.8,0,14.7,0v-3.2C175,145.8,170,145.8,165,145.8z"/>
	<path class="st1" d="M169.1,171.9c1.5,0,2.7-1.2,2.7-2.7c0-1.5-1.2-2.7-2.7-2.7c-1.5,0-2.7,1.2-2.7,2.7
		C166.4,170.6,167.6,171.8,169.1,171.9z"/>
</g>
<g>
	<path class="st2" d="M20.1,154.5c0-3.3-2.2-5.5-5.5-5.5c-4.9,0-9.8,0-14.7,0v31h20.1c0-1.9,0-3.9,0-5.8
		C20.1,167.6,20.1,161.1,20.1,154.5z M10.9,171.9c-1.5,0-2.7-1.2-2.7-2.7c0-1.5,1.2-2.7,2.7-2.7c1.5,0,2.7,1.2,2.7,2.7
		C13.6,170.7,12.4,171.9,10.9,171.9z"/>
	<path class="st2" d="M39.1,175.7c0.1-0.4,0-0.7-0.3-1c-5-6-10-11.9-15-17.9c-0.1-0.1-0.2-0.3-0.5-0.5c0,0.3,0,0.5,0,0.6
		c0,5.9,0,11.8,0,17.7c0,0.7,0.1,1.3,0.3,2c0.3,1.3,1,2.5,1.9,3.4H37C38.1,178.8,38.9,177.3,39.1,175.7z"/>
	<path class="st2" d="M0,145.8L0,145.8c5,0,9.9,0,14.9,0.1c2.7,0,4.9,1.1,6.6,3.1c6.7,8.1,13.5,16.2,20.3,24.2
		c0.8,0.9,0.7,1.9,0.5,2.8c-0.2,1.4-0.7,2.8-1.3,3.9h2v-34.2H0z"/>
	<path class="st1" d="M41.8,173.2c-6.8-8.1-13.5-16.2-20.3-24.2c-1.7-2.1-3.9-3.1-6.6-3.1c-5,0-9.9,0-14.9,0v3.2c4.9,0,9.8,0,14.7,0
		c3.3,0,5.5,2.2,5.5,5.5c0,6.5,0,13.1,0,19.6c0,1.9,0,3.9,0,5.8h5.4c-0.9-0.9-1.6-2.1-1.9-3.4c-0.2-0.6-0.3-1.3-0.3-2
		c0-5.9,0-11.8,0-17.7c0-0.1,0-0.3,0-0.6c0.2,0.3,0.4,0.4,0.5,0.5c5,6,10,11.9,15,17.9c0.3,0.3,0.3,0.6,0.3,1
		c-0.2,1.6-1,3.1-2.1,4.3h4c0.7-1.2,1.1-2.5,1.3-3.9C42.4,175.1,42.5,174.1,41.8,173.2z"/>
	<path class="st1" d="M10.9,166.4c-1.5,0-2.7,1.2-2.7,2.7c0,1.5,1.2,2.7,2.7,2.7c1.5,0,2.7-1.2,2.7-2.7
		C13.6,167.7,12.4,166.5,10.9,166.4z"/>
</g>
<g>
	<path class="st2" d="M150.3,2.4c1.6-0.3,3.1-1.2,4.2-2.4H143C144.8,1.9,147.5,2.9,150.3,2.4z"/>
	<path class="st2" d="M178.2,4.4c-0.7,0-1.4,0.1-2.1,0.2c-0.3,0-0.5,0.2-0.3,0.5c0.2,0.4,0.3,0.9,0.5,1.4c0.8,1.5,1.7,3,2.6,4.4
		c0.2,0.4,0.6,0.8,0.9,1.1c0.1,0.1,0.2,0.2,0.3,0.2V4.4C179.4,4.4,178.8,4.3,178.2,4.4z"/>
	<path class="st2" d="M169.1,22.9c4.5,0,8.3-3.2,9.2-7.6c0.1-0.3-0.1-0.5-0.3-0.7c-0.6-0.6-1.3-1.1-1.7-1.8c-1.1-1.7-2-3.4-3-5.1
		c-0.7-1.2-0.9-2.5-0.5-3.8c0.5-1.6,2.1-2.7,4-2.7c1.1,0,2.2,0,3.2-0.1V0h-20.1c0,4.5,0,9,0,13.5C159.9,18.7,164,22.9,169.1,22.9z"
		/>
	<path class="st2" d="M171.6,25.9c1.9,3.2,4.5,5,8.1,5.1c0.1,0,0.2,0,0.3,0V19.8c0,0,0,0,0,0C178,23,175.2,25,171.6,25.9z"/>
	<path class="st2" d="M178.1,34.1c-4.5-0.7-7.8-3.3-9.6-7.5c-0.2-0.4-0.4-0.6-0.8-0.6c-6.1-0.6-10.8-5.7-11-11.9
		c-0.1-3.5,0-7.1,0-10.6c0-0.2,0-0.4,0-0.8c-0.3,0.2-0.5,0.3-0.7,0.4c-1.5,1.1-3.1,2-4.9,2.4c-4.7,1.1-9.8-1.3-12.1-5.5h-1.9v34.2
		H180v0C179.4,34.2,178.8,34.1,178.1,34.1z"/>
	<path class="st1" d="M151.1,5.5c1.8-0.4,3.4-1.3,4.9-2.4c0.2-0.1,0.4-0.2,0.7-0.4c0,0.3,0,0.6,0,0.8c0,3.5-0.1,7.1,0,10.6
		c0.2,6.1,4.9,11.2,11,11.9c0.4,0,0.6,0.2,0.8,0.6c1.9,4.2,5.1,6.8,9.6,7.5c0.6,0.1,1.2,0.1,1.9,0.1V31c-0.1,0-0.2,0-0.3,0
		c-3.6-0.1-6.2-1.9-8.1-5.1c3.6-0.9,6.4-2.9,8.4-6.1c0,0,0,0,0,0v-7.6c-0.1,0-0.2-0.1-0.3-0.2c-0.3-0.4-0.7-0.7-0.9-1.1
		c-0.9-1.5-1.7-2.9-2.6-4.4c-0.2-0.4-0.4-0.9-0.5-1.4c-0.1-0.3,0-0.5,0.3-0.5c0.7-0.1,1.4-0.2,2.1-0.2c0.6,0,1.2,0,1.8,0V1.1
		c-1.1,0-2.2,0-3.2,0.1c-1.9,0-3.4,1.1-4,2.7c-0.5,1.3-0.2,2.6,0.5,3.8c1,1.7,1.9,3.4,3,5.1c0.4,0.7,1.1,1.2,1.7,1.8
		c0.2,0.2,0.4,0.3,0.3,0.7c-0.9,4.4-4.7,7.6-9.2,7.6c-5.1,0-9.2-4.2-9.2-9.3c0-4.5,0-9,0-13.5h-5.3c-1.1,1.2-2.6,2.1-4.2,2.4
		c-2.8,0.5-5.5-0.4-7.3-2.4h-4C141.3,4.2,146.4,6.6,151.1,5.5z"/>
</g>
<g>
	<path class="st2" d="M8.4,25.9C4.8,25,2,23,0,19.8V31C3.7,31,6.4,29.2,8.4,25.9z"/>
	<path class="st2" d="M3.2,1.2c1.8,0.1,3.3,0.9,4,2.7c0.5,1.3,0.2,2.6-0.5,3.8c-0.7,1.2-1.4,2.4-2,3.6c-0.8,1.3-1.4,2.7-2.8,3.5
		c-0.1,0.1-0.2,0.3-0.1,0.5c0.8,4.3,4.6,7.6,9,7.6c5.2,0.1,9.4-4.1,9.4-9.4c0-4.5,0-9,0-13.5H0v1.1C1.1,1.1,2.2,1.1,3.2,1.2z"/>
	<path class="st2" d="M41,0C38.7,4,34.1,6.4,29.2,5.5c-1.7-0.3-3.2-1-4.6-2c-0.4-0.3-0.8-0.6-1.2-0.8c0,0-0.1,0.1-0.1,0.1
		c0,0.2,0,0.4,0,0.6c0,3.4,0.1,6.9,0,10.3c-0.1,5.3-2.7,9.1-7.4,11.3c-1.1,0.5-2.4,0.7-3.6,1c-0.4,0.1-0.6,0.2-0.7,0.6
		C9.4,31.3,5,34.2,0,34.2v0h42.9V0H41z"/>
	<path class="st2" d="M0.3,12c0.3-0.3,0.6-0.6,0.8-1C2,9.5,3,7.8,3.9,6.2c0.8-1.3,0.5-1.8-1.1-1.9c-0.9,0-1.9,0-2.8,0c0,0,0,0,0,0
		v7.8C0.1,12.2,0.2,12.2,0.3,12z"/>
	<path class="st2" d="M31.8,2.5c2-0.1,3.9-1.1,5.3-2.5H25.5C27,1.6,29.3,2.6,31.8,2.5z"/>
	<path class="st1" d="M11.5,26.5c0.2-0.4,0.4-0.5,0.7-0.6c1.2-0.3,2.5-0.5,3.6-1c4.8-2.2,7.3-6,7.4-11.3c0.1-3.4,0-6.9,0-10.3
		c0-0.2,0-0.4,0-0.6c0,0,0.1-0.1,0.1-0.1c0.4,0.3,0.8,0.6,1.2,0.8c1.4,1,2.9,1.7,4.6,2C34.1,6.4,38.7,4,41,0h-4
		c-1.4,1.4-3.2,2.4-5.3,2.5C29.3,2.6,27,1.6,25.5,0h-5.3c0,4.5,0,9,0,13.5c0,5.3-4.2,9.4-9.4,9.4c-4.4-0.1-8.2-3.3-9-7.6
		c0-0.2,0-0.4,0.1-0.5c1.4-0.8,2.1-2.2,2.8-3.5c0.7-1.2,1.4-2.4,2-3.6c0.7-1.2,1-2.5,0.5-3.8C6.6,2,5.1,1.3,3.2,1.2
		C2.2,1.1,1.1,1.1,0,1.1v3.2c0,0,0,0,0,0c0.9,0,1.9,0,2.8,0c1.6,0,1.8,0.5,1.1,1.9C3,7.8,2,9.5,1.1,11.1c-0.2,0.4-0.5,0.6-0.8,1
		c-0.1,0.1-0.2,0.1-0.3,0.1v7.6C2,23,4.8,25,8.4,25.9C6.4,29.2,3.7,31,0,31v3.2C5,34.2,9.4,31.3,11.5,26.5z"/>
</g>
</svg>
